# xmcd
#
# Track frame offsets:
#	150
#	14500
#	25889
#	43580
#	56397
#	67529
#	81199
#	97696
#	106913
#	119493
#	133301
#	145871
#
# Disc length: 2143 seconds
#
# Revision: 3
# Processed by: cddbd v1.5.2PL0 Copyright (c) Steve Scherf et al.
# Submitted via: audiograbber 1.83.01
#
DISCID=96085d0c
DTITLE=Various Artist - Blue, Blues Christmas
DYEAR=1997
DGENRE=Christmas
TTITLE0=May Every Day Be Christmas - Louis Jordan
TTITLE1=I Want a Present For Christmas - J.B. Summer
TTITLE2=The Christmas Song - Carmen McRae
TTITLE3=Good Morning Blues (I Want to See Santa Claus) - Count Basie
TTITLE4=Merry Christmas, Baby - Otis Redding
TTITLE5=Blue Blood Blues - Jelly Roll Morton
TTITLE6=Lord, You Made Us Human - Dinah Washington
TTITLE7=O Come All Ye Faithful - Jackie Wilson
TTITLE8=The Santa Claus Blues - Louis Armstrong and The Red Onion Jazz Babies
TTITLE9=Blue Light Blues - Benny Carter
TTITLE10=Christmas Spirit - Julia Lee
TTITLE11=Please Come Home For Christmas - James Brown
EXTD=
EXTT0=
EXTT1=
EXTT2=
EXTT3=
EXTT4=
EXTT5=
EXTT6=
EXTT7=
EXTT8=
EXTT9=
EXTT10=
EXTT11=
PLAYORDER=
